<svg xmlns="http://www.w3.org/2000/svg" viewBox="0 0 64 64" id="note"><rect width="36" height="54" x="14" y="5" fill="#fff" rx="4"></rect><rect width="6" height="6" x="20" y="33" fill="#ffbc00" rx="3"></rect><rect width="6" height="6" x="20" y="45" fill="#ffbc00" rx="3"></rect><rect width="6" height="6" x="20" y="21" fill="#ffbc00" rx="3"></rect><path fill="#ffbc00" d="M18,5H46a4,4,0,0,1,4,4v6a0,0,0,0,1,0,0H14a0,0,0,0,1,0,0V9A4,4,0,0,1,18,5Z"></path><path d="M46,60H18a5,5,0,0,1-5-5V9a5,5,0,0,1,5-5,1,1,0,0,1,0,2,3,3,0,0,0-3,3V55a3,3,0,0,0,3,3H46a3,3,0,0,0,3-3V9a3,3,0,0,0-3-3H23a1,1,0,0,1,0-2H46a5,5,0,0,1,5,5V55A5,5,0,0,1,46,60Z"></path><path d="M45 16H14a1 1 0 010-2H45a1 1 0 010 2zM25 12a2 2 0 112-2A2 2 0 0125 12zm0-2zM39 12a2 2 0 112-2A2 2 0 0139 12zm0-2zM44 23H31a1 1 0 010-2H44a1 1 0 010 2zM38 27H31a1 1 0 010-2h7a1 1 0 010 2zM44 35H31a1 1 0 010-2H44a1 1 0 010 2zM38 39H31a1 1 0 010-2h7a1 1 0 010 2zM23 40a4 4 0 114-4A4 4 0 0123 40zm0-6a2 2 0 102 2A2 2 0 0023 34zM44 47H31a1 1 0 010-2H44a1 1 0 010 2zM38 51H31a1 1 0 010-2h7a1 1 0 010 2zM23 52a4 4 0 114-4A4 4 0 0123 52zm0-6a2 2 0 102 2A2 2 0 0023 46zM23 28a4 4 0 114-4A4 4 0 0123 28zm0-6a2 2 0 102 2A2 2 0 0023 22z"></path></svg>