<svg xmlns="http://www.w3.org/2000/svg" viewBox="0 0 512 512" id="agenda"><path fill="#eceff1" fill-rule="evenodd" d="M114.648 8.013h328.559c22.742 0 41.35 18.607 41.35 41.349v413.301c0 22.742-18.607 41.35-41.35 41.35H114.648c-22.742 0-41.35-18.607-41.35-41.35v-413.3c.001-22.742 18.608-41.35 41.35-41.35z" clip-rule="evenodd"></path><path fill="#d1d1d6" fill-rule="evenodd" d="M460.664 11.906c14.081 6.613 23.893 20.944 23.893 37.457v413.301c0 22.742-18.607 41.35-41.35 41.35H114.648c-16.514 0-30.844-9.812-37.457-23.893a40.968 40.968 0 0 0 17.456 3.893h328.559c22.742 0 41.349-18.607 41.349-41.35V29.362a40.948 40.948 0 0 0-3.891-17.456z" clip-rule="evenodd"></path><path fill="#6cf5c2" fill-rule="evenodd" d="M114.648 8.013h36.659v496h-36.659c-22.742 0-41.35-18.607-41.35-41.35v-413.3c.001-22.742 18.608-41.35 41.35-41.35z" clip-rule="evenodd"></path><path fill="#00e499" fill-rule="evenodd" d="M151.307 504.013v-20.001H94.648a40.964 40.964 0 0 1-17.456-3.893c-.13-.276-.257-.554-.38-.833 6.431 14.526 21 24.726 37.837 24.726h36.658v.001zm-74.604-24.972zm-.426-1.016-.171-.431c.056.144.113.288.171.431z" clip-rule="evenodd"></path><path fill="#a79ba7" fill-rule="evenodd" d="M41.556 182.338h53.236c7.76 0 14.108 6.349 14.108 14.108v15.676c0 7.759-6.349 14.108-14.108 14.108H41.556c-7.759 0-14.108-6.349-14.108-14.108v-15.676c0-7.759 6.349-14.108 14.108-14.108zm0 206.917h53.236c7.76 0 14.108 6.349 14.108 14.108v15.676c0 7.759-6.349 14.108-14.108 14.108H41.556c-7.759 0-14.108-6.348-14.108-14.108v-15.676c0-7.759 6.349-14.108 14.108-14.108zm0-310.375h53.236c7.76 0 14.108 6.349 14.108 14.108v15.675c0 7.759-6.349 14.108-14.108 14.108H41.556c-7.759 0-14.108-6.349-14.108-14.108V92.988c0-7.76 6.349-14.108 14.108-14.108zm0 206.917h53.236c7.76 0 14.108 6.349 14.108 14.108v15.676c0 7.76-6.349 14.108-14.108 14.108H41.556c-7.759 0-14.108-6.349-14.108-14.108v-15.676c0-7.76 6.349-14.108 14.108-14.108z" clip-rule="evenodd"></path><path fill="#837683" fill-rule="evenodd" d="M98.422 182.816c6.015 1.612 10.478 7.125 10.478 13.631v15.676c0 7.759-6.349 14.108-14.108 14.108H41.556c-6.505 0-12.018-4.463-13.63-10.478 1.16.311 2.376.477 3.63.477h53.236c7.759 0 14.108-6.349 14.108-14.108v-15.676a14.033 14.033 0 0 0-.478-3.63zm0 206.917c6.015 1.612 10.478 7.125 10.478 13.631v15.676c0 7.759-6.349 14.108-14.108 14.108H41.556c-6.505 0-12.018-4.463-13.63-10.478 1.16.311 2.376.478 3.63.478h53.236c7.759 0 14.108-6.349 14.108-14.108v-15.675a14.08 14.08 0 0 0-.478-3.632zm0-310.376c6.015 1.612 10.478 7.125 10.478 13.631v15.675c0 7.759-6.349 14.108-14.108 14.108H41.556c-6.505 0-12.018-4.463-13.63-10.478 1.16.311 2.376.478 3.63.478h53.236c7.759 0 14.108-6.349 14.108-14.108V82.987a14.076 14.076 0 0 0-.478-3.63zm0 206.917c6.015 1.612 10.478 7.125 10.478 13.63v15.676c0 7.76-6.349 14.108-14.108 14.108H41.556c-6.505 0-12.018-4.463-13.63-10.478 1.16.311 2.376.477 3.63.477h53.236c7.759 0 14.108-6.349 14.108-14.108v-15.676a14.037 14.037 0 0 0-.478-3.629z" clip-rule="evenodd"></path><path fill-rule="evenodd" d="M445.253 403.123c0 4.42-3.585 8.005-8.019 8.005h-126.56c-4.387 0-7.972-3.585-7.972-8.005 0-4.415 3.585-7.995 7.972-7.995h126.56c4.434 0 8.019 3.58 8.019 7.995zm0-49.039c0 4.42-3.585 8-8.019 8h-126.56c-4.387 0-7.972-3.581-7.972-8 0-4.415 3.585-7.995 7.972-7.995h126.56c4.434 0 8.019 3.58 8.019 7.995zm0-49.034c0 4.415-3.585 8-8.019 8h-126.56c-4.387 0-7.972-3.585-7.972-8 0-4.42 3.585-8 7.972-8h126.56c4.434-.001 8.019 3.58 8.019 8zm0-49.039c0 4.42-3.585 8-8.019 8h-126.56c-4.387 0-7.972-3.58-7.972-8s3.585-8 7.972-8h126.56c4.434-.001 8.019 3.58 8.019 8zm0-49.039c0 4.42-3.585 8-8.019 8h-126.56c-4.387 0-7.972-3.58-7.972-8s3.585-7.996 7.972-7.996h126.56c4.434 0 8.019 3.575 8.019 7.996zM273.031 353.711c2.972 3.269 2.736 8.33-.519 11.298l-48.539 44.039a7.927 7.927 0 0 1-5.377 2.08 7.95 7.95 0 0 1-5.661-2.345l-20.001-19.982c-3.113-3.123-3.113-8.189 0-11.312 3.161-3.123 8.208-3.123 11.321 0l14.623 14.59 42.879-38.916c3.255-2.971 8.302-2.725 11.274.548zm0-83.398c2.972 3.274 2.736 8.33-.519 11.302l-48.539 44.039a7.923 7.923 0 0 1-5.377 2.076 7.953 7.953 0 0 1-5.661-2.344l-20.001-19.977c-3.113-3.128-3.113-8.194 0-11.316 3.161-3.123 8.208-3.123 11.321 0l14.623 14.59 42.879-38.916c3.255-2.969 8.302-2.723 11.274.546zm0-83.394c2.972 3.269 2.736 8.331-.519 11.298l-48.539 44.039a7.923 7.923 0 0 1-5.377 2.076 7.945 7.945 0 0 1-5.661-2.34l-20.001-19.982c-3.113-3.123-3.113-8.189 0-11.316 3.161-3.123 8.208-3.123 11.321 0l14.623 14.595 42.879-38.916c3.255-2.973 8.302-2.728 11.274.546zm0-83.398c2.972 3.274 2.736 8.33-.519 11.302l-48.539 44.039a7.942 7.942 0 0 1-5.377 2.071 7.945 7.945 0 0 1-5.661-2.34l-20.001-19.981c-3.113-3.123-3.113-8.189 0-11.312 3.161-3.127 8.208-3.127 11.321 0l14.623 14.59 42.879-38.916c3.255-2.968 8.302-2.727 11.274.547zm172.222 5.377c0 4.415-3.585 8-8.019 8h-126.56c-4.387 0-7.972-3.585-7.972-8 0-4.42 3.585-8 7.972-8h126.56c4.434 0 8.019 3.58 8.019 8zm0 49.039c0 4.415-3.585 8-8.019 8h-126.56c-4.387 0-7.972-3.585-7.972-8 0-4.42 3.585-8 7.972-8h126.56c4.434 0 8.019 3.58 8.019 8zm31.274 304.726V49.359c0-18.387-14.953-33.35-33.303-33.35H159.301v479.999h283.923c18.35 0 33.303-14.958 33.303-33.345zm-395.246 0v-21.52h13.491c12.217 0 22.123-9.916 22.123-22.109v-15.675c0-12.189-9.906-22.104-22.123-22.104H81.281v-43.567h13.491c12.217 0 22.123-9.92 22.123-22.109v-15.675c0-12.193-9.906-22.109-22.123-22.109H81.281v-43.567h13.491c12.217 0 22.123-9.915 22.123-22.109v-15.675c0-12.189-9.906-22.109-22.123-22.109H81.281v-43.563h13.491c12.217 0 22.123-9.92 22.123-22.114v-15.67c0-12.194-9.906-22.109-22.123-22.109H81.281v-21.52c0-18.387 15-33.35 33.35-33.35h28.68v479.999h-28.68c-18.35 0-33.35-14.958-33.35-33.345zM35.43 419.034c0 3.373 2.783 6.109 6.132 6.109h53.209c3.396 0 6.132-2.736 6.132-6.109v-15.675c0-3.368-2.736-6.109-6.132-6.109H41.562c-3.349 0-6.132 2.741-6.132 6.109v15.675zm0-103.456c0 3.368 2.783 6.109 6.132 6.109h53.209c3.396 0 6.132-2.741 6.132-6.109v-15.675c0-3.368-2.736-6.109-6.132-6.109H41.562c-3.349 0-6.132 2.741-6.132 6.109v15.675zm0-103.46c0 3.368 2.783 6.109 6.132 6.109h53.209c3.396 0 6.132-2.741 6.132-6.109v-15.675c0-3.368-2.736-6.109-6.132-6.109H41.562c-3.349 0-6.132 2.741-6.132 6.109v15.675zm0-103.46c0 3.368 2.783 6.109 6.132 6.109h53.209c3.396 0 6.132-2.741 6.132-6.109v-15.67c0-3.368-2.736-6.113-6.132-6.113H41.562c-3.349 0-6.132 2.745-6.132 6.113v15.67zM443.224.013H114.631C87.413.013 65.29 22.15 65.29 49.359v21.52H41.562c-12.217 0-22.123 9.915-22.123 22.109v15.67c0 12.193 9.906 22.114 22.123 22.114H65.29v43.563H41.562c-12.217 0-22.123 9.92-22.123 22.109v15.675c0 12.194 9.906 22.109 22.123 22.109H65.29v43.567H41.562c-12.217 0-22.123 9.916-22.123 22.109v15.675c0 12.189 9.906 22.109 22.123 22.109H65.29v43.567H41.562c-12.217 0-22.123 9.915-22.123 22.104v15.675c0 12.194 9.906 22.109 22.123 22.109H65.29v21.52c0 27.208 22.123 49.35 49.341 49.35h328.594c27.218 0 49.341-22.142 49.341-49.35V49.359C492.565 22.15 470.442.013 443.224.013z" clip-rule="evenodd"></path></svg>